<?xml version="1.0" encoding="UTF-8"?>
<!DOCTYPE svg  PUBLIC '-//W3C//DTD SVG 1.1//EN'  'http://www.w3.org/Graphics/SVG/1.1/DTD/svg11.dtd'>
<svg enable-background="new 0 0 35.868 65.326" version="1.1" viewBox="0 0 35.868 65.326" xml:space="preserve" xmlns="http://www.w3.org/2000/svg">
		<path d="M5.833,47.74c0,0.55-0.45,1-1,1H1c-0.55,0-1-0.45-1-1v-28.75c0-0.55,0.45-1,1-1h3.833c0.55,0,1,0.45,1,1V47.74z"/>
		<path d="m9.665 17.068c-0.458 0.305-0.832 1.005-0.832 1.555v13.535 2 13.535c0 0.55 0.381 1.24 0.846 1.533l25.342 15.968c0.465 0.293 0.846 0.083 0.846-0.467v-30.57-2-31.569c0-0.55-0.375-0.75-0.832-0.445l-25.37 16.925z"/>
</svg>
